
<svg width="267" height="369" viewBox="0 0 267 369" fill="none" xmlns="http://www.w3.org/2000/svg">
<path d="M25.2932 366.82L25.2611 367.819L25.2612 367.819L25.2932 366.82ZM165.447 355.205L165.72 356.167L165.721 356.167L165.447 355.205ZM224.028 327.503L223.455 326.684L223.455 326.684L224.028 327.503ZM270.289 274.917L271.198 275.332L271.198 275.332L270.289 274.917ZM283.551 204.74L282.552 204.792L282.552 204.792L283.551 204.74ZM256.178 166.262L256.89 166.963L256.89 166.963L256.178 166.262ZM90.7234 278.699L91.4065 279.43L91.4065 279.43L90.7234 278.699ZM105.268 264.374L106.01 265.044L106.01 265.043L105.268 264.374ZM118.11 251.1L118.816 251.809L118.816 251.808L118.11 251.1ZM197.463 158.473L198.299 159.023L198.299 159.023L197.463 158.473ZM198.62 151.073L198.806 152.056L198.806 152.055L198.62 151.073ZM188.548 155.492L188.02 154.642L188.02 154.643L188.548 155.492ZM164.779 161.36L164.903 162.352L164.903 162.352L164.779 161.36ZM90.7041 144.224L91.2142 143.364L91.2141 143.364L90.7041 144.224ZM63.9235 143.53L63.1484 142.899L63.1484 142.899L63.9235 143.53ZM18.959 230.343L17.9965 230.072L17.9965 230.072L18.959 230.343ZM2.53721 321.952L3.53669 321.92L3.53668 321.919L2.53721 321.952ZM2.1593 331.259L1.22852 330.893L1.22831 330.894L2.1593 331.259ZM50.9928 70.1031L50.2497 70.7723L50.2498 70.7723L50.9928 70.1031ZM99.9363 112.25L100.457 111.396L100.457 111.396L99.9363 112.25ZM203.915 111.038L203.378 110.195L203.915 111.038ZM241.747 78.2707L240.786 77.9953L240.786 77.9963L241.747 78.2707ZM217.974 71.0091L218.182 70.031L218.182 70.031L217.974 71.0091ZM134.556 42.5707L134.995 41.6723L134.556 42.5707ZM137.026 30.2969L137.238 29.3197L137.238 29.3196L137.026 30.2969ZM204.162 37.6203L204.202 38.6195L204.202 38.6195L204.162 37.6203ZM244.184 35.0698L243.974 34.0921L243.973 34.0923L244.184 35.0698ZM237.441 14.221L236.548 14.6703L236.548 14.6703L237.441 14.221ZM196.827 -31.7428L197.353 -32.5932L197.353 -32.5932L196.827 -31.7428ZM134.485 -43.2951L134.597 -42.3014L134.485 -43.2951ZM31.3016 -1.61475L30.7565 -2.45315L30.7565 -2.45312L31.3016 -1.61475ZM9.9459 12.2704L9.40082 11.4321L8.55684 11.9808L9.1112 12.8211L9.9459 12.2704ZM25.0595 35.1801L25.8942 34.6295L25.8942 34.6294L25.0595 35.1801ZM25.2612 367.819C87.2503 369.809 130.306 366.252 165.72 356.167L165.173 354.243C130.047 364.246 87.2295 367.807 25.3253 365.82L25.2612 367.819ZM165.721 356.167C191.615 348.792 202.977 343.42 224.6 328.323L223.455 326.684C202.018 341.651 190.859 346.928 165.173 354.244L165.721 356.167ZM224.6 328.323C248.067 311.94 261.42 296.781 271.198 275.332L269.379 274.503C259.778 295.562 246.692 310.46 223.455 326.684L224.6 328.323ZM271.198 275.332C275.146 266.673 278.726 253.779 281.196 240.706C283.667 227.633 285.047 214.278 284.549 204.688L282.552 204.792C283.038 214.156 281.688 227.335 279.231 240.335C276.774 253.335 273.231 266.052 269.379 274.503L271.198 275.332ZM284.549 204.688C284.121 196.43 282.552 184.342 280.765 173.825C279.871 168.564 278.92 163.679 278.026 159.85C277.579 157.936 277.144 156.274 276.733 154.955C276.334 153.669 275.929 152.61 275.518 151.977L273.841 153.066C274.085 153.443 274.423 154.26 274.824 155.549C275.214 156.804 275.637 158.415 276.078 160.305C276.96 164.081 277.904 168.923 278.794 174.16C280.574 184.642 282.13 196.644 282.552 204.792L284.549 204.688ZM275.518 151.977C275.24 151.549 274.858 151.183 274.341 150.976C273.83 150.771 273.283 150.761 272.741 150.872C271.704 151.083 270.487 151.775 269.05 152.841C266.14 155.002 261.844 159.082 255.465 165.56L256.89 166.963C263.287 160.468 267.477 156.501 270.243 154.447C271.644 153.407 272.561 152.949 273.14 152.831C273.406 152.777 273.538 152.809 273.598 152.833C273.653 152.855 273.737 152.906 273.841 153.066L275.518 151.977ZM255.465 165.56C220.276 201.294 165.591 244.219 105.569 283.198L106.658 284.875C166.755 245.847 221.567 202.834 256.89 166.963L255.465 165.56ZM105.569 283.198C90.3948 293.052 81.1302 298.921 75.5069 302.088C72.6823 303.679 70.8438 304.549 69.6647 304.915C69.0707 305.099 68.7363 305.125 68.5704 305.107C68.4581 305.095 68.5069 305.08 68.5394 305.13L66.862 306.219C67.205 306.747 67.739 307.029 68.3568 307.096C68.921 307.156 69.5615 307.041 70.2571 306.825C71.6573 306.391 73.6568 305.426 76.4885 303.831C82.1777 300.626 91.4985 294.72 106.658 284.875L105.569 283.198ZM68.5394 305.13C68.4611 305.009 68.3172 304.549 68.9594 303.273C69.5651 302.07 70.7217 300.444 72.5458 298.307C76.1829 294.045 82.2988 287.947 91.4065 279.43L90.0404 277.969C80.9312 286.487 74.7417 292.653 71.0245 297.009C69.1715 299.18 67.8888 300.951 67.173 302.374C66.4937 303.723 66.1462 305.117 66.862 306.219L68.5394 305.13ZM91.4065 279.43C97.1201 274.086 103.691 267.614 106.01 265.044L104.525 263.704C102.268 266.206 95.751 272.628 90.0404 277.969L91.4065 279.43ZM106.01 265.043C108.279 262.526 114.043 256.569 118.816 251.809L117.404 250.392C112.625 255.158 106.83 261.146 104.525 263.704L106.01 265.043ZM118.816 251.808C149.024 221.683 183.64 181.281 198.299 159.023L196.628 157.923C182.075 180.02 147.565 220.313 117.404 250.392L118.816 251.808ZM198.299 159.023C199.475 157.236 200.382 155.813 201.017 154.699C201.63 153.624 202.066 152.71 202.18 151.985C202.239 151.605 202.234 151.134 201.974 150.705C201.702 150.255 201.271 150.046 200.891 149.956C200.526 149.869 200.127 149.869 199.745 149.9C199.353 149.931 198.91 150 198.433 150.091L198.806 152.055C199.253 151.971 199.615 151.916 199.903 151.893C200.203 151.87 200.361 151.886 200.429 151.902C200.481 151.914 200.357 151.895 200.263 151.74C200.181 151.605 200.226 151.534 200.204 151.676C200.154 151.995 199.902 152.617 199.279 153.709C198.679 154.762 197.803 156.138 196.628 157.923L198.299 159.023ZM198.433 150.091C197.153 150.333 195.353 150.978 193.508 151.787C191.647 152.604 189.669 153.62 188.02 154.642L189.075 156.342C190.63 155.377 192.521 154.404 194.311 153.619C196.117 152.827 197.751 152.256 198.806 152.056L198.433 150.091ZM188.02 154.643C186.571 155.543 183.244 156.67 178.923 157.736C174.653 158.79 169.55 159.753 164.654 160.368L164.903 162.352C169.877 161.727 175.056 160.751 179.403 159.678C183.698 158.618 187.321 157.431 189.075 156.342L188.02 154.643ZM164.654 160.368C140.8 163.363 114.835 157.371 91.2142 143.364L90.1941 145.085C114.141 159.285 140.548 165.41 164.903 162.352L164.654 160.368ZM91.2141 143.364C86.7839 140.738 83.3577 138.741 80.5999 137.392C77.8553 136.049 75.6552 135.286 73.6955 135.235C71.6665 135.182 70.0087 135.893 68.3703 137.224C66.7761 138.52 65.1438 140.45 63.1484 142.899L64.6987 144.162C66.7202 141.682 68.2249 139.92 69.6315 138.777C70.994 137.67 72.2007 137.197 73.6436 137.234C75.156 137.274 77.0352 137.874 79.7209 139.188C82.3934 140.496 85.7485 142.449 90.1942 145.085L91.2141 143.364ZM63.1484 142.899C43.6027 166.881 26.4957 199.91 17.9965 230.072L19.9216 230.614C28.3475 200.712 45.3282 167.929 64.6987 144.162L63.1484 142.899ZM17.9965 230.072C14.8835 241.12 10.6847 261.4 7.30998 280.226C5.62159 289.645 4.13691 298.714 3.09554 306.099C2.05927 313.448 1.44801 319.219 1.53774 321.984L3.53668 321.919C3.45362 319.36 4.03395 313.767 5.07595 306.378C6.11283 299.025 7.59309 289.982 9.2786 280.579C12.6517 261.762 16.8366 241.563 19.9216 230.614L17.9965 230.072ZM1.53773 321.984C1.60523 324.082 1.59716 326.164 1.52998 327.824C1.49636 328.655 1.44832 329.37 1.38918 329.923C1.35958 330.2 1.32819 330.426 1.29644 330.602C1.28064 330.689 1.26573 330.759 1.25245 330.811C1.24588 330.837 1.24022 330.857 1.23571 330.872C1.23349 330.879 1.2317 330.884 1.2304 330.888C1.22909 330.892 1.22844 330.894 1.22852 330.893L3.09007 331.625C3.23259 331.262 3.31684 330.706 3.37785 330.135C3.44332 329.523 3.49371 328.761 3.52834 327.905C3.5977 326.191 3.60556 324.06 3.53669 321.92L1.53773 321.984ZM1.22831 330.894C1.02863 331.403 0.897419 332.305 0.793832 333.338C0.684974 334.422 0.594855 335.801 0.522665 337.364C0.378168 340.493 0.303668 344.404 0.299456 348.274C0.295247 352.143 0.361295 355.984 0.499222 358.971C0.568094 360.463 0.655491 361.756 0.762909 362.738C0.81645 363.228 0.876756 363.658 0.946005 364.004C1.00467 364.297 1.09714 364.689 1.28433 364.977L2.96167 363.888C3.00892 363.961 2.97043 363.927 2.9071 363.611C2.85435 363.348 2.80162 362.984 2.75106 362.521C2.65027 361.599 2.56518 360.354 2.49709 358.879C2.36109 355.933 2.29526 352.126 2.29946 348.276C2.30364 344.427 2.37783 340.547 2.52053 337.456C2.59194 335.91 2.68006 334.571 2.78384 333.537C2.89289 332.451 3.00872 331.832 3.09028 331.624L1.22831 330.894ZM1.28433 364.977C1.4665 365.258 1.73369 365.414 1.88542 365.493C2.06689 365.588 2.27399 365.667 2.48484 365.736C2.90936 365.873 3.46037 366.001 4.10284 366.123C5.39453 366.367 7.16535 366.603 9.27656 366.821C13.505 367.256 19.1719 367.623 25.2611 367.819L25.3254 365.82C19.2707 365.626 13.6523 365.261 9.48148 364.831C7.39307 364.616 5.68576 364.386 4.4743 364.158C3.86519 364.042 3.40837 363.932 3.10046 363.833C2.94511 363.782 2.85486 363.743 2.81179 363.721C2.73899 363.683 2.85445 363.723 2.96167 363.888L1.28433 364.977ZM50.2498 70.7723C68.3946 90.9159 81.3751 102.102 99.4157 113.104L100.457 111.396C82.6213 100.52 69.7862 89.4726 51.7358 69.4338L50.2498 70.7723ZM99.4156 113.104C117.068 123.87 134.549 129.185 152.036 128.981C169.523 128.777 186.936 123.056 204.453 111.881L203.378 110.195C186.111 121.21 169.057 126.783 152.013 126.981C134.969 127.18 117.852 122.006 100.457 111.396L99.4156 113.104ZM204.453 111.881C211.747 107.228 220.932 100.101 228.446 93.5922C232.205 90.3368 235.561 87.2229 238.062 84.6385C239.312 83.3474 240.361 82.1757 241.144 81.176C241.898 80.2118 242.494 79.2987 242.709 78.5452L240.786 77.9963C240.688 78.3398 240.319 78.9848 239.569 79.9434C238.846 80.8666 237.85 81.9826 236.625 83.2475C234.179 85.7752 230.87 88.8472 227.137 92.0805C219.668 98.5497 210.563 105.612 203.378 110.195L204.453 111.881ZM242.709 78.5461C242.849 78.0548 242.643 77.6532 242.489 77.4432C242.334 77.2299 242.13 77.0616 241.948 76.9329C241.576 76.669 241.059 76.4042 240.457 76.1404C239.237 75.6058 237.468 74.9879 235.301 74.3261C230.957 72.9991 224.903 71.462 218.182 70.031L217.766 71.9872C224.448 73.41 230.443 74.9335 234.717 76.2388C236.859 76.8931 238.541 77.4843 239.654 77.9722C240.219 78.2197 240.587 78.4196 240.791 78.5638C240.897 78.6391 240.902 78.6608 240.874 78.6221C240.848 78.5866 240.686 78.3441 240.786 77.9953L242.709 78.5461ZM218.182 70.031C191.825 64.4198 157.773 52.8093 134.995 41.6723L134.117 43.469C157.05 54.6822 191.258 66.344 217.766 71.9872L218.182 70.031ZM134.995 41.6723C128.135 38.3184 122.162 34.6936 118.254 31.7127C116.287 30.2121 114.905 28.9214 114.183 27.9481C113.813 27.4491 113.695 27.1373 113.675 26.9938C113.668 26.9401 113.681 26.9545 113.661 27.0001C113.639 27.0492 113.613 27.0593 113.641 27.041L112.552 25.3636C112.246 25.5625 111.987 25.8378 111.829 26.1966C111.674 26.5519 111.647 26.9204 111.693 27.2619C111.781 27.9084 112.139 28.5503 112.577 29.1401C113.471 30.3445 115.034 31.7721 117.041 33.3029C121.081 36.3849 127.175 40.0753 134.117 43.4691L134.995 41.6723ZM113.641 27.041C113.523 27.1175 113.427 27.1385 113.419 27.1403C113.399 27.1451 113.399 27.1433 113.431 27.1405C113.494 27.135 113.606 27.1319 113.78 27.1376C114.124 27.1488 114.619 27.1908 115.259 27.2654C116.535 27.4141 118.316 27.6833 120.478 28.0533C124.797 28.7925 130.591 29.9257 136.815 31.2743L137.238 29.3196C130.994 27.9666 125.17 26.8272 120.815 26.0819C118.64 25.7096 116.819 25.4336 115.491 25.2789C114.83 25.2018 114.272 25.1525 113.845 25.1386C113.634 25.1318 113.432 25.1326 113.255 25.1482C113.166 25.1561 113.065 25.1691 112.963 25.1932C112.873 25.2143 112.713 25.2589 112.552 25.3636L113.641 27.041ZM136.814 31.2742C158.467 35.9688 188.48 39.2467 204.202 38.6195L204.122 36.6211C188.622 37.2394 158.788 33.9919 137.238 29.3197L136.814 31.2742ZM204.202 38.6195C213.926 38.2306 223.181 37.7565 230.387 37.2973C233.989 37.0678 237.084 36.8417 239.471 36.6316C241.832 36.4238 243.564 36.2267 244.395 36.0472L243.973 34.0923C243.287 34.2404 241.687 34.4289 239.296 34.6393C236.931 34.8474 233.854 35.0723 230.26 35.3013C223.073 35.7593 213.834 36.2328 204.122 36.6211L204.202 38.6195ZM244.395 36.0474C244.831 35.9534 245.287 35.7975 245.679 35.5048C246.094 35.1957 246.385 34.774 246.534 34.2519C246.806 33.3012 246.589 32.0741 246.105 30.5775C245.113 27.5112 242.661 22.376 238.335 13.7718L236.548 14.6703C240.902 23.3288 243.269 28.3064 244.202 31.1929C244.681 32.6728 244.703 33.3821 244.611 33.7017C244.579 33.8147 244.537 33.8616 244.484 33.9013C244.409 33.9573 244.261 34.0303 243.974 34.0921L244.395 36.0474ZM238.335 13.7718C232.29 1.7496 227.126 -6.7153 220.914 -13.7456C214.697 -20.7822 207.469 -26.3368 197.353 -32.5932L196.301 -30.8923C206.327 -24.6915 213.376 -19.2562 219.416 -12.4213C225.461 -5.57992 230.533 2.70853 236.548 14.6703L238.335 13.7718ZM197.353 -32.5932C187.724 -38.548 178.956 -42.2757 169.075 -44.1066C159.208 -45.9349 148.288 -45.8608 134.372 -44.2887L134.597 -42.3014C148.414 -43.8623 159.116 -43.918 168.711 -42.14C178.293 -40.3645 186.83 -36.7495 196.301 -30.8922L197.353 -32.5932ZM134.372 -44.2887C100.678 -40.4831 70.4247 -28.2425 30.7565 -2.45315L31.8467 -0.776354C71.3524 -26.4602 101.31 -38.5417 134.597 -42.3014L134.372 -44.2887ZM30.7565 -2.45312L9.40082 11.4321L10.491 13.1088L31.8467 -0.776379L30.7565 -2.45312ZM9.1112 12.8211L24.2247 35.7308L25.8942 34.6294L10.7806 11.7198L9.1112 12.8211ZM24.2247 35.7307C32.5473 48.348 44.25 64.1112 50.2497 70.7723L51.7358 69.4338C45.8333 62.8806 34.1939 47.2121 25.8942 34.6295L24.2247 35.7307Z" fill="#577a93" fill-opacity="0.1"/>
</svg>
